<?xml version="1.0" encoding="UTF-8" standalone="no"?>
<!-- Generated by IcoMoon.io -->

<svg
   xmlns:dc="http://purl.org/dc/elements/1.1/"
   xmlns:cc="http://creativecommons.org/ns#"
   xmlns:rdf="http://www.w3.org/1999/02/22-rdf-syntax-ns#"
   xmlns:svg="http://www.w3.org/2000/svg"
   xmlns="http://www.w3.org/2000/svg"
   xmlns:sodipodi="http://sodipodi.sourceforge.net/DTD/sodipodi-0.dtd"
   xmlns:inkscape="http://www.inkscape.org/namespaces/inkscape"
   version="1.1"
   width="512"
   height="512"
   viewBox="0 0 512 512"
   id="svg2"
   inkscape:version="0.91 r13725"
   sodipodi:docname="github.svg">
  <metadata
     id="metadata13">
    <rdf:RDF>
      <cc:Work
         rdf:about="">
        <dc:format>image/svg+xml</dc:format>
        <dc:type
           rdf:resource="http://purl.org/dc/dcmitype/StillImage" />
      </cc:Work>
    </rdf:RDF>
  </metadata>
  <defs
     id="defs11" />
  <sodipodi:namedview
     pagecolor="#ffffff"
     bordercolor="#666666"
     borderopacity="1"
     objecttolerance="10"
     gridtolerance="10"
     guidetolerance="10"
     inkscape:pageopacity="0"
     inkscape:pageshadow="2"
     inkscape:window-width="698"
     inkscape:window-height="480"
     id="namedview9"
     showgrid="false"
     inkscape:zoom="0.4609375"
     inkscape:cx="-2.1694915"
     inkscape:cy="256"
     inkscape:window-x="65"
     inkscape:window-y="24"
     inkscape:window-maximized="0"
     inkscape:current-layer="svg2" />
  <title
     id="title4" />
  <g
     id="icomoon-ignore" />
  <path
     d="M256.004 6.321c-141.369 0-256.004 114.609-256.004 255.999 0 113.107 73.352 209.066 175.068 242.918 12.793 2.369 17.496-5.555 17.496-12.316 0-6.102-0.24-26.271-0.348-47.662-71.224 15.488-86.252-30.205-86.252-30.205-11.641-29.588-28.424-37.458-28.424-37.458-23.226-15.889 1.755-15.562 1.755-15.562 25.7 1.805 39.238 26.383 39.238 26.383 22.836 39.135 59.888 27.82 74.502 21.279 2.294-16.543 8.926-27.84 16.253-34.232-56.865-6.471-116.638-28.425-116.638-126.516 0-27.949 10.002-50.787 26.38-68.714-2.658-6.45-11.427-32.486 2.476-67.75 0 0 21.503-6.876 70.42 26.245 20.418-5.674 42.318-8.518 64.077-8.617 21.751 0.099 43.668 2.943 64.128 8.617 48.867-33.122 70.328-26.245 70.328-26.245 13.936 35.264 5.175 61.3 2.518 67.75 16.41 17.928 26.347 40.766 26.347 68.714 0 98.327-59.889 119.975-116.895 126.312 9.182 7.945 17.362 23.523 17.362 47.406 0 34.254-0.298 61.822-0.298 70.254 0 6.814 4.611 14.797 17.586 12.283 101.661-33.888 174.921-129.813 174.921-242.884 0-141.39-114.617-255.999-255.996-255.999z"
     id="path7"
     style="fill:#ffffff" />
</svg>
