<?xml version="1.0" encoding="UTF-8" standalone="no"?>
<!-- Generated by IcoMoon.io -->

<svg
   xmlns:dc="http://purl.org/dc/elements/1.1/"
   xmlns:cc="http://creativecommons.org/ns#"
   xmlns:rdf="http://www.w3.org/1999/02/22-rdf-syntax-ns#"
   xmlns:svg="http://www.w3.org/2000/svg"
   xmlns="http://www.w3.org/2000/svg"
   xmlns:sodipodi="http://sodipodi.sourceforge.net/DTD/sodipodi-0.dtd"
   xmlns:inkscape="http://www.inkscape.org/namespaces/inkscape"
   version="1.1"
   width="512"
   height="512"
   viewBox="0 0 512 512"
   id="svg2"
   inkscape:version="0.91 r13725"
   sodipodi:docname="twitter.svg">
  <metadata
     id="metadata13">
    <rdf:RDF>
      <cc:Work
         rdf:about="">
        <dc:format>image/svg+xml</dc:format>
        <dc:type
           rdf:resource="http://purl.org/dc/dcmitype/StillImage" />
      </cc:Work>
    </rdf:RDF>
  </metadata>
  <defs
     id="defs11" />
  <sodipodi:namedview
     pagecolor="#ffffff"
     bordercolor="#666666"
     borderopacity="1"
     objecttolerance="10"
     gridtolerance="10"
     guidetolerance="10"
     inkscape:pageopacity="0"
     inkscape:pageshadow="2"
     inkscape:window-width="698"
     inkscape:window-height="480"
     id="namedview9"
     showgrid="false"
     inkscape:zoom="0.4609375"
     inkscape:cx="-2.1694915"
     inkscape:cy="256"
     inkscape:window-x="75"
     inkscape:window-y="34"
     inkscape:window-maximized="0"
     inkscape:current-layer="svg2" />
  <title
     id="title4" />
  <g
     id="icomoon-ignore" />
  <path
     d="M512 113.2c-18.8 8.4-39.1 14-60.3 16.5 21.7-13 38.3-33.6 46.2-58.1-20.3 12-42.8 20.8-66.7 25.5-19.2-20.4-46.5-33.1-76.7-33.1-58 0-105 47-105 105 0 8.2 0.9 16.2 2.7 23.9-87.3-4.4-164.7-46.2-216.5-109.8-9 15.5-14.2 33.6-14.2 52.8 0 36.4 18.5 68.6 46.7 87.4-17.2-0.5-33.4-5.3-47.6-13.1 0 0.4 0 0.9 0 1.3 0 50.9 36.2 93.4 84.3 103-8.8 2.4-18.1 3.7-27.7 3.7-6.8 0-13.3-0.7-19.8-1.9 13.4 41.7 52.2 72.1 98.1 73-36 28.2-81.2 45-130.5 45-8.5 0-16.8-0.5-25.1-1.5 46.6 29.9 101.8 47.2 161.1 47.2 193.2 0 298.9-160.1 298.9-298.9 0-4.6-0.1-9.1-0.3-13.6 20.5-14.7 38.3-33.2 52.4-54.3z"
     id="path7"
     style="fill:#ffffff" />
</svg>
