<!DOCTYPE svg PUBLIC "-//W3C//DTD SVG 20010904//EN" "http://www.w3.org/TR/2001/REC-SVG-20010904/DTD/svg10.dtd">
<svg version="1.0" xmlns="http://www.w3.org/2000/svg" width="512px" height="512px" viewBox="0 0 5120 5120" preserveAspectRatio="xMidYMid meet">
<g id="layer101" fill="currentColor" stroke="none">
 <path d="M2469 5116 c-2 -2 -51 -6 -109 -9 -58 -3 -112 -8 -120 -11 -8 -3 -37 -7 -65 -9 -74 -7 -275 -54 -399 -94 -528 -170 -993 -513 -1311 -968 -84 -120 -193 -312 -239 -421 -21 -49 -44 -102 -51 -119 -35 -80 -98 -298 -121 -415 -38 -198 -47 -297 -47 -510 0 -178 5 -242 28 -407 3 -18 16 -84 29 -147 138 -635 528 -1205 1076 -1570 337 -225 679 -354 1095 -412 144 -20 476 -23 610 -5 50 6 104 13 120 15 63 7 275 59 379 93 544 175 1027 539 1345 1016 53 78 201 342 201 357 0 4 11 33 25 64 38 86 93 249 120 358 70 274 95 547 74 803 -15 193 -14 181 -40 310 -12 61 -23 117 -24 125 -1 8 -5 22 -7 30 -3 8 -25 76 -48 150 -23 74 -65 185 -92 245 -27 61 -52 119 -56 130 -3 11 -9 24 -14 30 -5 5 -38 60 -74 120 -210 358 -515 664 -888 890 -59 36 -112 65 -117 65 -5 0 -9 5 -9 12 0 6 -3 9 -6 6 -3 -3 -51 16 -108 42 -208 98 -554 199 -741 215 -232 21 -288 25 -346 25 -36 0 -68 -2 -70 -4z m-579 -1092 c221 -284 398 -520 393 -523 -4 -4 -39 -20 -77 -36 -209 -86 -387 -265 -481 -482 -19 -43 -38 -79 -42 -80 -5 -2 -23 10 -41 27 -18 16 -35 30 -37 30 -8 0 -599 461 -611 476 -6 8 -14 14 -18 14 -8 0 -238 178 -252 196 -6 8 -16 14 -21 14 -5 0 -20 11 -32 24 l-23 25 74 113 c188 285 393 487 688 675 36 23 68 42 72 42 4 1 187 -231 408 -515z m820 -840 c118 -27 205 -78 301 -173 130 -131 184 -257 188 -443 4 -182 -55 -324 -189 -458 -142 -142 -271 -192 -480 -186 -178 5 -299 57 -425 181 -119 119 -174 244 -182 420 -9 204 44 343 187 485 93 94 183 147 295 174 80 19 225 19 305 0z m1297 -1280 c274 -213 506 -395 517 -405 18 -17 18 -19 -23 -79 -22 -34 -41 -64 -41 -66 0 -11 -125 -173 -198 -256 -76 -88 -202 -204 -302 -281 -92 -70 -250 -168 -261 -162 -5 4 -35 39 -64 79 -61 80 -77 100 -441 567 -143 184 -269 346 -278 361 -18 27 -17 28 0 34 161 57 328 174 422 296 49 64 116 174 127 207 12 40 35 91 40 91 2 0 229 -174 502 -386z"/>
 <path d="M2491 2870 c-89 -19 -183 -97 -224 -189 -28 -64 -28 -178 1 -243 29 -66 103 -141 165 -169 72 -32 182 -32 253 0 96 42 174 145 189 251 12 83 -31 207 -90 262 -74 69 -201 106 -294 88z"/>
 </g>

</svg>