<!DOCTYPE svg PUBLIC "-//W3C//DTD SVG 20010904//EN" "http://www.w3.org/TR/2001/REC-SVG-20010904/DTD/svg10.dtd">
<svg version="1.0" xmlns="http://www.w3.org/2000/svg" width="512px" height="512px" viewBox="0 0 5120 5120" preserveAspectRatio="xMidYMid meet">
<g id="layer101" fill="currentColor" stroke="none">
 <path d="M430 4265 l0 -215 751 2 751 3 19 75 c26 101 69 186 140 275 l59 75 -860 0 -860 0 0 -215z"/>
 <path d="M2810 4303 c-14 -2 -72 -16 -130 -30 -306 -74 -521 -276 -520 -489 1 -58 21 -147 43 -190 18 -34 147 -174 161 -174 5 0 24 -11 42 -25 18 -14 39 -25 48 -25 8 0 18 -5 21 -10 10 -16 102 -60 125 -60 12 0 29 -4 39 -10 43 -22 236 -42 356 -36 195 10 298 33 412 92 l68 36 3 -1256 2 -1256 158 0 c98 1 178 6 212 14 128 32 173 46 232 74 35 17 89 42 121 57 31 14 57 31 57 36 0 5 6 9 13 9 8 0 22 9 33 21 10 12 42 36 69 54 50 34 215 197 215 213 0 5 16 26 35 48 19 21 35 45 35 52 0 6 4 12 8 12 13 0 72 89 72 110 0 10 6 25 13 32 38 39 165 345 187 453 5 22 20 77 35 123 27 86 49 204 64 352 5 47 13 110 16 140 l8 55 -27 -38 c-14 -21 -26 -40 -26 -42 0 -3 -16 -27 -35 -54 -19 -26 -35 -53 -35 -58 0 -6 -9 -18 -20 -28 -12 -10 -29 -38 -40 -62 -10 -23 -30 -54 -44 -68 -14 -14 -32 -38 -40 -53 -8 -15 -23 -36 -35 -46 -12 -11 -21 -30 -21 -43 0 -12 -6 -23 -12 -23 -7 -1 -29 -22 -48 -47 -19 -26 -47 -59 -62 -74 -16 -15 -28 -31 -28 -36 0 -8 -136 -139 -205 -196 -84 -69 -182 -122 -317 -172 -47 -17 -220 -30 -282 -21 l-46 7 0 1080 0 1080 -27 80 c-23 69 -36 88 -91 144 -35 36 -66 65 -70 65 -3 0 -17 11 -31 24 -15 13 -52 34 -83 46 -32 13 -58 27 -58 30 0 11 -177 62 -274 80 -58 10 -245 12 -296 3z"/>
 <path d="M430 3200 l0 -210 1041 0 c1011 0 1041 1 1018 18 -13 10 -44 32 -69 49 -75 51 -232 206 -285 281 l-50 72 -827 0 -828 0 0 -210z"/>
 <path d="M430 2135 l0 -215 1385 0 1385 0 0 215 0 215 -1385 0 -1385 0 0 -215z"/>
 <path d="M430 1065 l0 -215 1385 0 1385 0 0 215 0 215 -1385 0 -1385 0 0 -215z"/>
 </g>

</svg>