<!DOCTYPE svg PUBLIC "-//W3C//DTD SVG 20010904//EN" "http://www.w3.org/TR/2001/REC-SVG-20010904/DTD/svg10.dtd">
<svg version="1.0" xmlns="http://www.w3.org/2000/svg" width="512px" height="512px" viewBox="0 0 5120 5120" preserveAspectRatio="xMidYMid meet">
<g fill="currentColor" stroke="none">
 <path d="M2910 4935 c-230 -34 -401 -139 -471 -290 -28 -58 -31 -74 -27 -138 4 -84 29 -142 88 -210 174 -197 572 -267 875 -152 39 14 80 33 93 41 l22 14 0 -1036 0 -1036 163 4 c149 5 170 8 257 37 443 149 743 581 849 1223 25 152 29 200 16 204 -5 2 -49 -59 -97 -135 -263 -415 -480 -616 -735 -682 -77 -19 -198 -25 -220 -11 -10 6 -13 211 -15 908 l-3 899 -33 67 c-75 152 -255 260 -492 294 -112 16 -156 16 -270 -1z"/>
 <path d="M429 4741 c-22 -22 -29 -39 -29 -68 0 -37 36 -74 1943 -1980 1906 -1907 1943 -1943 1980 -1943 54 0 97 43 97 97 0 37 -36 74 -1943 1980 -1906 1907 -1943 1943 -1980 1943 -29 0 -46 -7 -68 -29z"/>
 <path d="M810 2915 c-230 -34 -401 -139 -471 -290 -28 -58 -31 -74 -27 -138 4 -84 29 -142 88 -210 174 -197 572 -267 875 -152 39 14 80 33 93 41 l22 14 0 -1036 0 -1036 163 4 c149 5 170 8 257 37 443 149 743 581 849 1223 25 152 29 200 16 204 -5 2 -49 -59 -97 -135 -263 -415 -480 -616 -735 -682 -77 -19 -198 -25 -220 -11 -10 6 -13 211 -15 908 l-3 899 -33 67 c-75 152 -255 260 -492 294 -112 16 -156 16 -270 -1z"/>
 </g>

</svg>