<svg width="421" height="500" viewBox="0 0 421 500" fill="none" xmlns="http://www.w3.org/2000/svg">
<path d="M88.5556 497.717C47.7737 491.688 17.4533 473.07 5.04137 446.296C0.0766165 436.012 -0.455321 433.175 0.253929 421.827C0.96318 406.933 5.396 396.648 15.8574 384.591C46.7098 349.661 117.28 337.249 171.006 357.64C177.921 360.122 185.191 363.491 187.496 364.909L191.397 367.392V183.696V0L220.299 0.709251C246.719 1.59581 250.442 2.12775 265.868 7.26982C344.418 33.6894 397.612 110.288 416.407 224.123C420.84 251.075 421.549 259.586 419.244 260.295C418.357 260.65 410.555 249.834 402.044 236.358C355.411 162.773 316.934 127.133 271.72 115.431C258.067 112.062 236.612 110.998 232.711 113.48C230.938 114.544 230.406 150.893 230.051 274.48L229.519 433.884L223.668 445.764C210.369 472.716 178.453 491.865 136.43 497.894C116.571 500.731 108.769 500.731 88.5556 497.717Z" fill="currentColor"/>
</svg>
